<?xml version="1.0" encoding="iso-8859-1"?>
<!-- Generator: Adobe Illustrator 19.0.0, SVG Export Plug-In . SVG Version: 6.00 Build 0)  -->
<svg version="1.1" id="Capa_1" xmlns="http://www.w3.org/2000/svg" xmlns:xlink="http://www.w3.org/1999/xlink" x="0px" y="0px"
	 viewBox="0 0 512 512" style="enable-background:new 0 0 512 512;" xml:space="preserve">
<g>
	<g>
		<path d="M512,185.667v-42.286l-78.856-83.714h-0.077V0H78.933v59.667h-0.077L0,143.381v42.286h46.933v136.916H30v-45.357H0v75.357
			h46.933V482H0v30h512v-30h-46.933V352.583H512v-75.357h-30v45.357h-16.933V185.667H512z M108.933,30h294.134v29.667H108.933V30z
			 M162.045,482h-23.064v-51.582h23.064V482z M267.532,482h-23.064v-51.582h23.064V482z M373.018,482h-23.064v-51.582h23.064V482z
			 M435.068,482h-32.049v-81.582h-83.065V482h-22.422v-81.582h-83.064V482h-22.422v-81.582h-83.064V482H76.933V352.583h358.135V482z
			 M138.982,322.583V271h23.064v51.583H138.982z M244.468,322.583V271h23.064v51.583H244.468z M349.955,322.583V271h23.064v51.583
			H349.955z M435.068,322.583h-32.049V241h-83.064v81.583h-22.422V241h-83.064v81.583h-22.422V241h-83.064v81.583h-32.05V185.667
			h358.135V322.583z M30,155.667v-0.381l61.811-65.619h328.378L482,155.286v0.381H30z"/>
	</g>
</g>
<g>
</g>
<g>
</g>
<g>
</g>
<g>
</g>
<g>
</g>
<g>
</g>
<g>
</g>
<g>
</g>
<g>
</g>
<g>
</g>
<g>
</g>
<g>
</g>
<g>
</g>
<g>
</g>
<g>
</g>
</svg>
