<svg id="Layer_1" enable-background="new 0 0 512.012 512.012" height="512" viewBox="0 0 512.012 512.012" width="512" xmlns="http://www.w3.org/2000/svg"><g><path d="m512.007 360c0-67.413-67.745-112.342-131.317-133.108 12.753-26.305 21.272-53.959 21.272-80.936 0-80.48-65.476-145.956-145.955-145.956s-145.955 65.476-145.955 145.956c0 26.977 8.519 54.632 21.272 80.936-150.466 49.15-176.429 173.201-52.912 243.195 88.058 49.899 221.224 54.601 317.588 17.605 8.803 9.988 21.677 16.308 36.007 16.308 34.023 0 57.222-34.565 44.499-65.965 23.274-23.355 35.501-50.112 35.501-78.035zm-256-328c62.835 0 113.955 51.12 113.955 113.956 0 66.435-66.307 145.971-113.962 192.124-47.678-46.126-113.948-125.647-113.948-192.124 0-62.836 51.12-113.956 113.955-113.956zm-56.19 363.861c-3.323-38.691-49.185-57.586-78.804-32.471-.653-1.217-1.006-2.361-1.006-3.39 0-8.463 23.2-26.952 78.578-35.667 24.332 27.623 44.717 45.795 46.836 47.664 6.048 5.336 15.123 5.337 21.172 0 2.118-1.869 22.503-20.042 46.836-47.664 55.378 8.715 78.578 27.204 78.578 35.667 0 5.799-10.655 15.966-34.05 24.585-45.308 16.692-109.56 18.75-158.14 11.276zm-47.81-11.861c8.822 0 16 7.178 16 16s-7.178 16-16 16-16-7.178-16-16 7.178-16 16-16zm-57.818 58.246c-106.411-60.301-68.163-149.898 52.849-186.762 8.8 14.378 18.473 28.061 28.224 40.661-36.338 7.918-87.255 26.695-87.255 63.855 0 8.723 3.123 20.923 16.513 33.021-4.262 29.134 18.423 54.979 47.487 54.979 16.476 0 31.036-8.346 39.684-21.03 99.121 16.212 232.316-7.492 232.316-66.97 0-37.154-50.897-55.933-87.255-63.855 9.751-12.6 19.424-26.283 28.224-40.661 70.282 21.41 115.031 61.699 115.031 104.516 0 22.313-11.979 40.716-24.775 54.011-32.441-18.016-72.689 6.42-71.175 43.957-86.57 33.084-209.65 29.734-289.868-15.722zm337.818 29.754c-8.822 0-16-7.178-16-16s7.178-16 16-16 16 7.178 16 16-7.178 16-16 16z"/><path d="m256.007 224c44.112 0 80-35.888 80-80s-35.888-80-80-80-80 35.888-80 80 35.888 80 80 80zm0-128c26.467 0 48 21.533 48 48s-21.533 48-48 48-48-21.533-48-48 21.533-48 48-48z"/></g></svg>