<svg width="16" height="16" viewBox="0 0 16 16" fill="none" xmlns="http://www.w3.org/2000/svg">
<path d="M15.2 8.80005V14.4C15.2 14.6122 15.1157 14.8157 14.9657 14.9657C14.8157 15.1158 14.6122 15.2 14.4 15.2H1.6C1.38783 15.2 1.18434 15.1158 1.03431 14.9657C0.884285 14.8157 0.8 14.6122 0.8 14.4V8.80005H0V7.20005L0.8 3.20005H15.2L16 7.20005V8.80005H15.2ZM2.4 8.80005V13.6H13.6V8.80005H2.4ZM1.632 7.20005H14.368L13.888 4.80005H2.112L1.632 7.20005ZM3.2 9.60005H9.6V12H3.2V9.60005ZM0.8 0.800049H15.2V2.40005H0.8V0.800049Z" fill="white"/>
</svg>
