<svg xmlns="http://www.w3.org/2000/svg" xmlns:xlink="http://www.w3.org/1999/xlink" version="1.1" style="enable-background:new 0 0 296.941 296.941;" xml:space="preserve" width="296.941" height="296.941"><rect id="backgroundrect" width="100%" height="100%" x="0" y="0" fill="none" stroke="none"/>
















<g class="currentLayer" style=""><title>Layer 1</title><g id="svg_1" class="selected" fill="#ffffff" fill-opacity="1">
	<path d="M77.306,148.47l22.041-48.793c1.341-2.969,4.332-4.835,7.604-4.701c3.255,0.128,6.108,2.216,7.213,5.28l35.215,97.647   l32.995-71.534c1.122-2.432,3.386-4.142,6.032-4.554c2.644-0.413,5.323,0.525,7.132,2.501l22.122,24.153h67.595   c14.933-33.237,12.972-59.475,8.227-76.269c-9.621-34.06-41.082-57.85-76.507-57.85c-4.962,0-10.023,0.459-15.044,1.364   c-20.383,3.676-36.967,14.477-47.959,31.235c-2.048,3.121-3.888,6.445-5.501,9.914c-1.613-3.469-3.453-6.793-5.501-9.914   c-10.992-16.759-27.576-27.559-47.959-31.235c-5.021-0.905-10.082-1.364-15.044-1.364c-35.425,0-66.886,23.789-76.507,57.85   c-4.744,16.794-6.705,43.031,8.228,76.269H77.306z" id="svg_2" fill="#ffffff" fill-opacity="1"/>
	<path d="M214.138,164.47c-2.243,0-4.384-0.942-5.899-2.597l-16.375-17.879l-36.128,78.326c-1.311,2.843-4.153,4.649-7.263,4.649   c-0.115,0-0.23-0.002-0.346-0.008c-3.243-0.14-6.081-2.225-7.182-5.278l-35.14-97.439l-16.044,35.519   c-1.295,2.865-4.147,4.707-7.291,4.707H19.925c22.802,39.249,64.563,78.539,124.224,116.851c1.316,0.846,2.819,1.269,4.322,1.269   c1.503,0,3.006-0.423,4.322-1.269c59.661-38.311,101.422-77.602,124.224-116.851H214.138z" id="svg_3" fill="#ffffff" fill-opacity="1"/>
</g><g id="svg_4">
</g><g id="svg_5">
</g><g id="svg_6">
</g><g id="svg_7">
</g><g id="svg_8">
</g><g id="svg_9">
</g><g id="svg_10">
</g><g id="svg_11">
</g><g id="svg_12">
</g><g id="svg_13">
</g><g id="svg_14">
</g><g id="svg_15">
</g><g id="svg_16">
</g><g id="svg_17">
</g><g id="svg_18">
</g></g></svg>